<?xml version="1.0" encoding="utf-8"?>
<!-- Generator: Adobe Illustrator 27.5.0, SVG Export Plug-In . SVG Version: 6.00 Build 0)  -->
<svg version="1.1" id="Lager_1" xmlns="http://www.w3.org/2000/svg" xmlns:xlink="http://www.w3.org/1999/xlink" x="0px" y="0px"
	 viewBox="0 0 48 48" style="enable-background:new 0 0 48 48;" xml:space="preserve">
<style type="text/css">
	.st0{fill:none;stroke:#FFFFFF;stroke-miterlimit:10;}
	.st1{fill:#FFFFFF;}
	.st2{fill:#5A447F;}
</style>
<path class="st0" d="M24,44c-2.7,0-5.3-0.5-7.8-1.6s-4.6-2.5-6.4-4.3s-3.3-3.9-4.3-6.4S4,26.7,4,24c0-2.8,0.5-5.4,1.6-7.8
	s2.5-4.6,4.3-6.4s3.9-3.2,6.4-4.3S21.3,4,24,4c2.8,0,5.4,0.5,7.8,1.6s4.5,2.5,6.4,4.3c1.8,1.8,3.2,3.9,4.3,6.4s1.6,5,1.6,7.8
	c0,2.7-0.5,5.3-1.6,7.8s-2.5,4.6-4.3,6.4c-1.8,1.8-3.9,3.2-6.4,4.3S26.8,44,24,44z"/>
<g>
	<path class="st1" d="M21.3,19h12.2c0.2,0,0.4-0.2,0.4-0.4v-2.6c0-0.2-0.2-0.4-0.4-0.4H21.3c-0.2,0-0.4,0.2-0.4,0.4v2.6
		C20.9,18.8,21.1,19,21.3,19z"/>
	<path class="st1" d="M14.5,19h2.8c0.2,0,0.4-0.2,0.4-0.4v-2.6c0-0.2-0.2-0.4-0.4-0.4h-2.8c-0.2,0-0.4,0.2-0.4,0.4v2.6
		C14.1,18.8,14.3,19,14.5,19z"/>
	<path class="st1" d="M21.3,25.7h12.2c0.2,0,0.4-0.2,0.4-0.4v-2.6c0-0.2-0.2-0.4-0.4-0.4H21.3c-0.2,0-0.4,0.2-0.4,0.4v2.6
		C20.9,25.5,21.1,25.7,21.3,25.7z"/>
	<path class="st1" d="M14.5,25.7h2.8c0.2,0,0.4-0.2,0.4-0.4v-2.6c0-0.2-0.2-0.4-0.4-0.4h-2.8c-0.2,0-0.4,0.2-0.4,0.4v2.6
		C14.1,25.5,14.3,25.7,14.5,25.7z"/>
	<path class="st1" d="M33.5,29H21.3c-0.2,0-0.4,0.2-0.4,0.4v2.6c0,0.2,0.2,0.4,0.4,0.4h12.2c0.2,0,0.4-0.2,0.4-0.4v-2.6
		C33.9,29.2,33.7,29,33.5,29z"/>
	<path class="st1" d="M17.3,29h-2.8c-0.2,0-0.4,0.2-0.4,0.4v2.6c0,0.2,0.2,0.4,0.4,0.4h2.8c0.2,0,0.4-0.2,0.4-0.4v-2.6
		C17.7,29.2,17.5,29,17.3,29z"/>
</g>
<path class="st0" d="M-29.9,42.2c-2.7,0-5.3-0.5-7.8-1.6c-2.4-1-4.6-2.5-6.4-4.3s-3.2-3.9-4.3-6.4s-1.6-5-1.6-7.8
	c0-2.8,0.5-5.4,1.6-7.8s2.5-4.6,4.3-6.4s3.9-3.2,6.4-4.3c2.4-1,5-1.6,7.8-1.6c2.8,0,5.4,0.5,7.8,1.6s4.5,2.5,6.3,4.3
	s3.2,3.9,4.3,6.4s1.6,5,1.6,7.8c0,2.7-0.5,5.3-1.6,7.8s-2.5,4.6-4.3,6.4s-3.9,3.2-6.3,4.3S-27.1,42.2-29.9,42.2z"/>
<g>
	<path class="st1" d="M-32.6,17.2h12.2c0.2,0,0.4-0.2,0.4-0.4v-2.6c0-0.2-0.2-0.4-0.4-0.4h-12.2c-0.2,0-0.4,0.2-0.4,0.4v2.6
		C-33,17.1-32.8,17.2-32.6,17.2z"/>
	<path class="st1" d="M-39.4,17.2h2.8c0.2,0,0.4-0.2,0.4-0.4v-2.6c0-0.2-0.2-0.4-0.4-0.4h-2.8c-0.2,0-0.4,0.2-0.4,0.4v2.6
		C-39.8,17.1-39.6,17.2-39.4,17.2z"/>
	<path class="st1" d="M-32.6,23.9h12.2c0.2,0,0.4-0.2,0.4-0.4v-2.6c0-0.2-0.2-0.4-0.4-0.4h-12.2c-0.2,0-0.4,0.2-0.4,0.4v2.6
		C-33,23.7-32.8,23.9-32.6,23.9z"/>
	<path class="st1" d="M-39.4,23.9h2.8c0.2,0,0.4-0.2,0.4-0.4v-2.6c0-0.2-0.2-0.4-0.4-0.4h-2.8c-0.2,0-0.4,0.2-0.4,0.4v2.6
		C-39.8,23.7-39.6,23.9-39.4,23.9z"/>
	<path class="st1" d="M-20.3,27.2h-12.2c-0.2,0-0.4,0.2-0.4,0.4v2.6c0,0.2,0.2,0.4,0.4,0.4h12.2c0.2,0,0.4-0.2,0.4-0.4v-2.6
		C-20,27.4-20.1,27.2-20.3,27.2z"/>
	<path class="st1" d="M-36.6,27.2h-2.8c-0.2,0-0.4,0.2-0.4,0.4v2.6c0,0.2,0.2,0.4,0.4,0.4h2.8c0.2,0,0.4-0.2,0.4-0.4v-2.6
		C-36.2,27.4-36.4,27.2-36.6,27.2z"/>
</g>
<path class="st2" d="M97.3,41.3c-2.7,0-5.3-0.5-7.8-1.6s-4.6-2.5-6.4-4.3s-3.2-3.9-4.3-6.4c-1-2.4-1.6-5-1.6-7.8
	c0-2.8,0.5-5.4,1.6-7.8c1.1-2.4,2.5-4.6,4.3-6.3s3.9-3.2,6.4-4.3s5-1.6,7.8-1.6c2.8,0,5.4,0.5,7.8,1.6s4.5,2.5,6.3,4.3
	c1.8,1.8,3.2,3.9,4.3,6.3c1,2.4,1.6,5,1.6,7.8c0,2.7-0.5,5.3-1.6,7.8c-1.1,2.4-2.5,4.6-4.3,6.4c-1.8,1.8-3.9,3.2-6.3,4.3
	S100,41.3,97.3,41.3z"/>
<g>
	<g>
		<rect x="94.6" y="13.4" class="st1" width="12.2" height="2.6"/>
		<path class="st1" d="M106.7,16.3H94.6c-0.2,0-0.4-0.2-0.4-0.4v-2.6c0-0.2,0.2-0.4,0.4-0.4h12.2c0.2,0,0.4,0.2,0.4,0.4V16
			C107.1,16.2,107,16.3,106.7,16.3z M94.9,15.6h11.4v-1.8H94.9V15.6z"/>
	</g>
	<g>
		<rect x="87.7" y="13.4" class="st1" width="2.8" height="2.6"/>
		<path class="st1" d="M90.5,16.3h-2.8c-0.2,0-0.4-0.2-0.4-0.4v-2.6c0-0.2,0.2-0.4,0.4-0.4h2.8c0.2,0,0.4,0.2,0.4,0.4V16
			C90.9,16.2,90.7,16.3,90.5,16.3z M88.1,15.6h2v-1.8h-2V15.6z"/>
	</g>
	<g>
		<rect x="94.6" y="20" class="st1" width="12.2" height="2.6"/>
		<path class="st1" d="M106.7,23H94.6c-0.2,0-0.4-0.2-0.4-0.4V20c0-0.2,0.2-0.4,0.4-0.4h12.2c0.2,0,0.4,0.2,0.4,0.4v2.6
			C107.1,22.8,107,23,106.7,23z M94.9,22.2h11.4v-1.8H94.9V22.2z"/>
	</g>
	<g>
		<rect x="87.7" y="20" class="st1" width="2.8" height="2.6"/>
		<path class="st1" d="M90.5,23h-2.8c-0.2,0-0.4-0.2-0.4-0.4V20c0-0.2,0.2-0.4,0.4-0.4h2.8c0.2,0,0.4,0.2,0.4,0.4v2.6
			C90.9,22.8,90.7,23,90.5,23z M88.1,22.2h2v-1.8h-2V22.2z"/>
	</g>
	<g>
		<rect x="94.6" y="26.7" class="st1" width="12.2" height="2.6"/>
		<path class="st1" d="M106.8,29.6H94.6c-0.2,0-0.4-0.2-0.4-0.4v-2.6c0-0.2,0.2-0.4,0.4-0.4h12.2c0.2,0,0.4,0.2,0.4,0.4v2.6
			C107.2,29.4,107,29.6,106.8,29.6z M95,28.9h11.4v-1.8H95V28.9z"/>
	</g>
	<g>
		<rect x="87.8" y="26.7" class="st1" width="2.8" height="2.6"/>
		<path class="st1" d="M90.6,29.6h-2.8c-0.2,0-0.4-0.2-0.4-0.4v-2.6c0-0.2,0.2-0.4,0.4-0.4h2.8c0.2,0,0.4,0.2,0.4,0.4v2.6
			C90.9,29.4,90.8,29.6,90.6,29.6z M88.2,28.9h2v-1.8h-2V28.9z"/>
	</g>
</g>
</svg>
